<svg width="200" height="200" viewBox="0 0 200 200" fill="none" xmlns="http://www.w3.org/2000/svg">
  <!-- Left Leaf (Olive) -->
  <path d="M100 160C85 140 70 120 70 95C70 75 80 65 95 60C100 75 105 100 100 120" stroke="#8A9A5B" stroke-width="2" fill="#A5AD8D" fill-opacity="0.6" />
  <!-- Middle Leaf (Earth) -->
  <path d="M100 170C110 140 125 110 115 80C110 60 100 50 85 55C90 80 95 120 100 140" stroke="#946b54" stroke-width="2" fill="#A26D4D" fill-opacity="0.6" />
  <!-- Right Leaf (Tan) -->
  <path d="M100 165C115 145 130 130 135 105C138 90 135 80 120 75C118 90 115 115 100 135" stroke="#d4a373" stroke-width="2" fill="#E0C7A0" fill-opacity="0.6" />
  <!-- Text Simulation -->
  <text x="50" y="185" font-family="Playfair Display, serif" font-size="22" fill="#5D4037">velferd</text>
  <text x="55" y="198" font-family="Inter, sans-serif" font-size="10" letter-spacing="2" fill="#8D6E63">MASOTERAPIA</text>
</svg>
